<svg 
          width="8.503454208374023" 
          height="14.855413436889648" fill="none" 
          xmlns="http://www.w3.org/2000/svg">
          <path d="M 8.211519848467644 0.29072726420109357 C 8.119596098444061 0.19857085144491787 8.01039424480882 0.12545473208371616 7.890169480857907 0.07556697119852236 C 7.769944716906993 0.02567921031332858 7.641058292671652 -7.031411925047426e-16 7.510893843523191 0 C 7.38072939437473 -7.031411925047426e-16 7.2518437251316294 0.02567921031332858 7.131618961180716 0.07556697119852236 C 7.011394197229802 0.12545473208371616 6.902193098586804 0.19857085144491787 6.810269348563221 0.29072726420109357 L 0.23151837077753604 6.869476879728878 C 0.15812805232447827 6.942716859084188 0.0999028943727376 7.029712075019344 0.06017590159612827 7.125482623192916 C 0.02044890881951894 7.221253171366488 0 7.323918449018274 0 7.427601774542011 C 0 7.531285100065748 0.02044890881951894 7.633950377717534 0.06017590159612827 7.729720925891106 C 0.0999028943727376 7.825491474064679 0.15812805232447827 7.912486689999835 0.23151837077753604 7.985726669355145 L 6.810269348563221 14.564477228623062 C 7.198186060847037 14.95239387171075 7.823603136183827 14.95239387171075 8.211519848467644 14.564477228623062 C 8.59943656075146 14.176560585535373 8.59943656075146 13.551143621759746 8.211519848467644 13.163226978672057 L 2.4798520455441695 7.423643350927267 L 8.219435187124848 1.6840604781745827 C 8.599435215921531 1.3040605171618593 8.59943656075146 0.670727225213817 8.211519848467644 0.29072726420109357 Z" fill="rgb(30.00000011175871,35.00000171363354,44.000001177191734)"/>
        </svg>